<svg xmlns="http://www.w3.org/2000/svg" viewBox="0 0 471 558"><defs><style>.cls-1{fill:#ffffff;}</style></defs><title>Asset 116</title><g id="Layer_2" data-name="Layer 2"><g id="Layer_1-2" data-name="Layer 1"><path class="cls-1" d="M32.28,378.36q21-9.28,47.2-9.28a115.18,115.18,0,0,1,35.68,5.44,96.76,96.76,0,0,1,30.08,15.84,85.68,85.68,0,0,1,21.92,25.76q8.64,15.36,10.88,35.2H129.4a41.08,41.08,0,0,0-5.76-15.84,50.63,50.63,0,0,0-11.2-12.64,52.44,52.44,0,0,0-33-11.52q-17,0-28.8,6.56a54.36,54.36,0,0,0-19.2,17.6A77.07,77.07,0,0,0,20.76,460.6a125.07,125.07,0,0,0-3.36,29.12,116.32,116.32,0,0,0,3.36,28A75.54,75.54,0,0,0,31.48,542.2,54.45,54.45,0,0,0,47.9,558h60.83a41,41,0,0,0,6.75-5.88q13-14.08,15.84-37.12H180A116.22,116.22,0,0,1,170,553.72c-.68,1.46-1.39,2.88-2.12,4.28H471V41.76H403V228H352.72V41.76H284.24V0H49.32V228H0V400.66A101.66,101.66,0,0,1,32.28,378.36Z"/></g></g></svg>