<svg width="106" height="13" viewBox="0 0 106 13" fill="none" xmlns="http://www.w3.org/2000/svg">
<g id="logo">
<g id="XMLID_234_">
<path id="XMLID_243_" d="M8.33302 1.46767V7.33465C8.33302 9.2903 7.48274 10.0981 5.44205 10.0981C3.40136 10.0981 2.55108 9.2903 2.55108 7.33465V1.21259H0.595418C0.467875 1.21259 0.340332 1.34013 0.340332 1.46767V7.41967C0.340332 10.6933 2.42353 11.8412 5.44205 11.8412C8.46056 11.8412 10.5438 10.6933 10.5438 7.41967V1.21259H8.58811C8.46056 1.21259 8.33302 1.29761 8.33302 1.46767Z" fill="black"/>
<path id="XMLID_242_" d="M36.7751 2.91316C36.9451 2.91316 37.0301 2.87064 37.0727 2.7431L37.6253 1.34013C37.6679 1.2551 37.6253 1.21259 37.5403 1.21259H29.6326C28.9099 1.21259 28.6123 1.42516 28.6123 1.93533V11.0334C28.6123 11.4585 28.8249 11.6711 29.3776 11.6711H36.7325C36.9026 11.6711 36.9876 11.6286 37.0301 11.501L37.5828 10.0981C37.6253 10.013 37.5828 9.97053 37.4978 9.97053H30.7805V8.0999C30.7805 7.46219 31.1206 7.16459 32.0985 7.16459H35.032C35.202 7.16459 35.2871 7.12207 35.3296 6.99453L35.8823 5.63407C35.9248 5.54904 35.8823 5.50653 35.7972 5.50653H30.823V2.87064H36.7751V2.91316Z" fill="black"/>
<path id="XMLID_238_" fill-rule="evenodd" clip-rule="evenodd" d="M22.8726 6.14426C23.7231 5.67657 24.063 4.8688 24.063 3.84848C24.063 1.5527 22.1924 1.21259 20.2368 1.21259H15.7729C15.0498 1.21259 14.7524 1.42517 14.7524 1.93533V11.0334C14.7524 11.4585 14.9648 11.6711 15.5176 11.6711H21.002C23.0854 11.6711 24.5308 10.8633 24.5308 8.78012C24.5732 7.5047 24.063 6.44183 22.8726 6.14426ZM16.9634 2.87064H20.4072C21.5547 2.87064 21.895 3.29578 21.895 4.18857C21.895 5.08139 21.5547 5.50653 20.4072 5.50653H16.9634V2.87064ZM16.9634 9.97052H20.832C22.0649 9.97052 22.4053 9.54538 22.4053 8.56757C22.4053 7.58972 22.0649 7.12207 20.832 7.12207H18.2812C17.3037 7.12207 16.9634 7.41968 16.9634 8.05737V9.97052Z" fill="black"/>
<path id="XMLID_235_" fill-rule="evenodd" clip-rule="evenodd" d="M48.9766 7.46219L51.3149 11.501C51.3574 11.5435 51.3574 11.6711 51.2725 11.6711H49.2744C49.104 11.6711 49.0615 11.6286 48.9766 11.501L46.8511 7.67477H44.938C43.96 7.67477 43.6201 7.97235 43.6201 8.61008V11.6711H41.7065C41.6514 11.6711 41.5962 11.6471 41.5513 11.6096C41.4927 11.5605 41.4517 11.4883 41.4517 11.416V1.93533C41.4517 1.42517 41.749 1.21259 42.4722 1.21259H46.936C49.5293 1.21259 51.1025 1.89282 51.1025 4.44366C51.1025 6.39932 50.1245 7.16458 48.9766 7.46219ZM43.5771 6.0592H47.2334C48.5938 6.0592 48.8916 5.54904 48.8916 4.44366C48.8916 3.3808 48.5938 2.87064 47.2334 2.87064H43.5771V6.0592Z" fill="black"/>
</g>
<g id="XMLID_224_">
<path id="XMLID_232_" d="M67.598 10.7358L67.5555 11.6711H59.8179V1.21259H67.2579L67.3004 2.19041H60.8807V5.80413H66.4076V6.65442H60.8807V10.7358H67.598Z" fill="#57AD56" stroke="#57AD56" stroke-width="0.25"/>
<g id="XMLID_229_">
<path fill-rule="evenodd" clip-rule="evenodd" d="M74.0176 8.9502H80.1821L81.3726 11.6711H82.563L77.7588 1.21259H76.5259L71.6792 11.6711H72.8271L74.0176 8.9502ZM74.3999 8.0574L76.6533 2.9982L77.0781 1.93533H77.1206L77.5459 2.9982L79.7568 8.0574H74.3999Z" fill="#57AD56"/>
<path d="M80.1821 8.9502L80.2966 8.90009L80.2639 8.8252H80.1821V8.9502ZM74.0176 8.9502V8.8252H73.9358L73.9031 8.90009L74.0176 8.9502ZM81.3726 11.6711L81.258 11.7212L81.2908 11.7961H81.3726V11.6711ZM82.563 11.6711V11.7961H82.758L82.6766 11.6189L82.563 11.6711ZM77.7588 1.21259L77.8724 1.16041L77.8389 1.08759H77.7588V1.21259ZM76.5259 1.21259V1.08759H76.446L76.4125 1.16003L76.5259 1.21259ZM71.6792 11.6711L71.5658 11.6186L71.4835 11.7961H71.6792V11.6711ZM72.8271 11.6711V11.7961H72.9089L72.9417 11.7212L72.8271 11.6711ZM76.6533 2.9982L76.7676 3.0491L76.7694 3.04459L76.6533 2.9982ZM74.3999 8.0574L74.2857 8.00654L74.2074 8.1824H74.3999V8.0574ZM77.0781 1.93533V1.81033H76.9935L76.9621 1.88894L77.0781 1.93533ZM77.1206 1.93533L77.2367 1.8889L77.2052 1.81033H77.1206V1.93533ZM77.5459 2.9982L77.4298 3.04466L77.4314 3.04825L77.5459 2.9982ZM79.7568 8.0574V8.1824H79.9479L79.8714 8.00735L79.7568 8.0574ZM80.1821 8.8252H74.0176V9.0752H80.1821V8.8252ZM81.4871 11.621L80.2966 8.90009L80.0676 9.0003L81.258 11.7212L81.4871 11.621ZM82.563 11.5461H81.3726V11.7961H82.563V11.5461ZM77.6452 1.26476L82.4494 11.7233L82.6766 11.6189L77.8724 1.16041L77.6452 1.26476ZM76.5259 1.33759H77.7588V1.08759H76.5259V1.33759ZM71.7926 11.7237L76.6393 1.26514L76.4125 1.16003L71.5658 11.6186L71.7926 11.7237ZM72.8271 11.5461H71.6792V11.7961H72.8271V11.5461ZM73.9031 8.90009L72.7126 11.621L72.9417 11.7212L74.1321 9.0003L73.9031 8.90009ZM76.5391 2.94734L74.2857 8.00654L74.5141 8.10826L76.7675 3.04906L76.5391 2.94734ZM76.9621 1.88894L76.5372 2.95181L76.7694 3.04459L77.1942 1.98172L76.9621 1.88894ZM77.1206 1.81033H77.0781V2.06033H77.1206V1.81033ZM77.662 2.95176L77.2367 1.8889L77.0046 1.98177L77.4298 3.04464L77.662 2.95176ZM79.8714 8.00735L77.6604 2.94814L77.4314 3.04825L79.6423 8.10746L79.8714 8.00735ZM74.3999 8.1824H79.7568V7.9324H74.3999V8.1824Z" fill="#57AD56"/>
</g>
<path id="XMLID_227_" d="M90.2154 2.19041V11.6711H89.1525V2.19041H85.2412L85.2837 1.21259H94.1692V2.19041H90.2154Z" fill="#57AD56" stroke="#57AD56" stroke-width="0.25"/>
<path id="XMLID_225_" d="M101.737 11.8837C100.292 11.8837 99.1438 11.5435 98.2085 10.9909L98.3786 10.0555C99.3564 10.6082 100.462 10.9483 101.78 10.9483C103.735 10.9483 104.756 10.0555 104.756 8.78012C104.756 6.01669 98.3786 7.46217 98.3786 3.89097C98.3786 2.36046 99.5264 1 102.205 1C103.438 1 104.543 1.21257 105.436 1.63771L105.266 2.53051C104.288 2.14789 103.353 1.93531 102.247 1.93531C100.164 1.93531 99.3989 2.87063 99.3989 3.80594C99.3989 6.44183 105.776 4.95383 105.776 8.69509C105.734 10.5657 104.373 11.8837 101.737 11.8837Z" fill="#57AD56" stroke="#57AD56" stroke-width="0.25"/>
</g>
</g>
</svg>
